<svg width="96" height="96" viewBox="0 0 96 96" fill="none" xmlns="http://www.w3.org/2000/svg">
  <rect x="3" y="3" width="90" height="90" rx="22" fill="#fffef8"/>
  <path d="M20 32H13C13 25 18 20 25 20C27 13 33 8 42 8C50 8 57 13 59 21C61 20 64 20 66 20C74 21 81 26 82 32H89" stroke="#050505" stroke-width="5" stroke-linecap="round" stroke-linejoin="round"/>
  <path d="M48 9L51 16L58 17L53 22L54 29L48 25L42 29L43 22L38 17L45 16L48 9Z" fill="#21d4c7" stroke="#050505" stroke-width="4" stroke-linejoin="round"/>
  <path d="M19 82H82" stroke="#050505" stroke-width="6" stroke-linecap="round"/>
  <path d="M13 65V50L30 42L47 50V65L30 73L13 65Z" fill="#18c4c7" stroke="#050505" stroke-width="5" stroke-linejoin="round"/>
  <path d="M13 50L30 58L47 50" stroke="#050505" stroke-width="5" stroke-linejoin="round"/>
  <path d="M30 58V73" stroke="#050505" stroke-width="5" stroke-linejoin="round"/>
  <path d="M23 48V34L40 26L57 34V48L40 56L23 48Z" fill="#ffc928" stroke="#050505" stroke-width="5" stroke-linejoin="round"/>
  <path d="M23 34L40 42L57 34" stroke="#050505" stroke-width="5" stroke-linejoin="round"/>
  <path d="M40 42V56" stroke="#050505" stroke-width="5" stroke-linejoin="round"/>
  <path d="M40 35V19L56 11L72 19V35L56 43L40 35Z" fill="#16c6bb" stroke="#050505" stroke-width="5" stroke-linejoin="round"/>
  <path d="M40 19L56 27L72 19" stroke="#050505" stroke-width="5" stroke-linejoin="round"/>
  <path d="M56 27V43" stroke="#050505" stroke-width="5" stroke-linejoin="round"/>
  <path d="M48 65V49L65 41L82 49V65L65 73L48 65Z" fill="#34d06e" stroke="#050505" stroke-width="5" stroke-linejoin="round"/>
  <path d="M48 49L65 57L82 49" stroke="#050505" stroke-width="5" stroke-linejoin="round"/>
  <path d="M65 57V73" stroke="#050505" stroke-width="5" stroke-linejoin="round"/>
  <path d="M39 56V40L56 32L73 40V56L56 64L39 56Z" fill="#ff4f45" stroke="#050505" stroke-width="5" stroke-linejoin="round"/>
  <path d="M39 40L56 48L73 40" stroke="#050505" stroke-width="5" stroke-linejoin="round"/>
  <path d="M56 48V64" stroke="#050505" stroke-width="5" stroke-linejoin="round"/>
  <circle cx="18" cy="30" r="3" fill="#050505"/>
  <circle cx="82" cy="42" r="3" fill="#050505"/>
</svg>
